<mxfile host="app.diagrams.net" agent="Mozilla/5.0 (Windows NT 10.0; Win64; x64) AppleWebKit/537.36 (KHTML, like Gecko) Chrome/127.0.0.0 Safari/537.36 Edg/127.0.0.0" version="24.7.5">
  <diagram name="第 1 页" id="1I5DRWzhS_6sZe2GTjOA">
    <mxGraphModel dx="101312" dy="713" grid="1" gridSize="10" guides="1" tooltips="1" connect="1" arrows="1" fold="1" page="1" pageScale="1" pageWidth="99999" pageHeight="99999" math="0" shadow="0">
      <root>
        <mxCell id="0" />
        <mxCell id="1" parent="0" />
        <mxCell id="PPXtktauCG2vYTS8j9W_-1" value="&lt;font style=&quot;font-size: 17px;&quot;&gt;基本概念&lt;/font&gt;" style="rounded=0;whiteSpace=wrap;html=1;" vertex="1" parent="1">
          <mxGeometry x="200" y="330" width="90" height="50" as="geometry" />
        </mxCell>
        <mxCell id="PPXtktauCG2vYTS8j9W_-3" value="&lt;font style=&quot;font-size: 17px;&quot;&gt;数据&lt;/font&gt;" style="rounded=1;whiteSpace=wrap;html=1;" vertex="1" parent="1">
          <mxGeometry x="80" y="240" width="80" height="40" as="geometry" />
        </mxCell>
        <mxCell id="PPXtktauCG2vYTS8j9W_-5" value="&lt;font style=&quot;font-size: 17px;&quot;&gt;数据元素&lt;/font&gt;" style="rounded=1;whiteSpace=wrap;html=1;" vertex="1" parent="1">
          <mxGeometry x="80" y="300" width="80" height="40" as="geometry" />
        </mxCell>
        <mxCell id="PPXtktauCG2vYTS8j9W_-6" value="&lt;font style=&quot;font-size: 17px;&quot;&gt;数据项&lt;/font&gt;" style="rounded=1;whiteSpace=wrap;html=1;" vertex="1" parent="1">
          <mxGeometry x="80" y="360" width="80" height="40" as="geometry" />
        </mxCell>
        <mxCell id="PPXtktauCG2vYTS8j9W_-7" value="&lt;font style=&quot;font-size: 17px;&quot;&gt;数据对象&lt;/font&gt;" style="rounded=1;whiteSpace=wrap;html=1;" vertex="1" parent="1">
          <mxGeometry x="80" y="420" width="80" height="40" as="geometry" />
        </mxCell>
        <mxCell id="PPXtktauCG2vYTS8j9W_-8" value="&lt;font style=&quot;font-size: 18px;&quot;&gt;数据结构&lt;/font&gt;" style="rounded=0;whiteSpace=wrap;html=1;" vertex="1" parent="1">
          <mxGeometry x="320" y="325" width="120" height="60" as="geometry" />
        </mxCell>
        <mxCell id="PPXtktauCG2vYTS8j9W_-25" style="edgeStyle=orthogonalEdgeStyle;rounded=0;orthogonalLoop=1;jettySize=auto;html=1;exitX=0.5;exitY=1;exitDx=0;exitDy=0;entryX=0.5;entryY=0;entryDx=0;entryDy=0;" edge="1" parent="1" source="PPXtktauCG2vYTS8j9W_-9" target="PPXtktauCG2vYTS8j9W_-11">
          <mxGeometry relative="1" as="geometry" />
        </mxCell>
        <mxCell id="PPXtktauCG2vYTS8j9W_-26" style="edgeStyle=orthogonalEdgeStyle;rounded=0;orthogonalLoop=1;jettySize=auto;html=1;exitX=0.5;exitY=1;exitDx=0;exitDy=0;" edge="1" parent="1" source="PPXtktauCG2vYTS8j9W_-9" target="PPXtktauCG2vYTS8j9W_-12">
          <mxGeometry relative="1" as="geometry" />
        </mxCell>
        <mxCell id="PPXtktauCG2vYTS8j9W_-9" value="&lt;span style=&quot;font-size: 17px;&quot;&gt;逻辑结构&lt;/span&gt;" style="rounded=0;whiteSpace=wrap;html=1;" vertex="1" parent="1">
          <mxGeometry x="335" y="420" width="90" height="50" as="geometry" />
        </mxCell>
        <mxCell id="PPXtktauCG2vYTS8j9W_-46" style="edgeStyle=orthogonalEdgeStyle;rounded=0;orthogonalLoop=1;jettySize=auto;html=1;exitX=0.5;exitY=1;exitDx=0;exitDy=0;entryX=0.5;entryY=0;entryDx=0;entryDy=0;" edge="1" parent="1" source="PPXtktauCG2vYTS8j9W_-10" target="PPXtktauCG2vYTS8j9W_-42">
          <mxGeometry relative="1" as="geometry" />
        </mxCell>
        <mxCell id="PPXtktauCG2vYTS8j9W_-10" value="&lt;span style=&quot;font-size: 17px;&quot;&gt;存储结构&lt;/span&gt;" style="rounded=0;whiteSpace=wrap;html=1;" vertex="1" parent="1">
          <mxGeometry x="990" y="420" width="90" height="50" as="geometry" />
        </mxCell>
        <mxCell id="PPXtktauCG2vYTS8j9W_-27" style="edgeStyle=orthogonalEdgeStyle;rounded=0;orthogonalLoop=1;jettySize=auto;html=1;exitX=0.5;exitY=1;exitDx=0;exitDy=0;entryX=0.5;entryY=0;entryDx=0;entryDy=0;" edge="1" parent="1" source="PPXtktauCG2vYTS8j9W_-11" target="PPXtktauCG2vYTS8j9W_-13">
          <mxGeometry relative="1" as="geometry" />
        </mxCell>
        <mxCell id="PPXtktauCG2vYTS8j9W_-11" value="&lt;span style=&quot;font-size: 17px;&quot;&gt;线性结构&lt;/span&gt;" style="rounded=1;whiteSpace=wrap;html=1;" vertex="1" parent="1">
          <mxGeometry x="75" y="510" width="90" height="40" as="geometry" />
        </mxCell>
        <mxCell id="PPXtktauCG2vYTS8j9W_-31" style="edgeStyle=orthogonalEdgeStyle;rounded=0;orthogonalLoop=1;jettySize=auto;html=1;exitX=0.5;exitY=1;exitDx=0;exitDy=0;" edge="1" parent="1" source="PPXtktauCG2vYTS8j9W_-12" target="PPXtktauCG2vYTS8j9W_-18">
          <mxGeometry relative="1" as="geometry" />
        </mxCell>
        <mxCell id="PPXtktauCG2vYTS8j9W_-32" style="edgeStyle=orthogonalEdgeStyle;rounded=0;orthogonalLoop=1;jettySize=auto;html=1;exitX=0.5;exitY=1;exitDx=0;exitDy=0;" edge="1" parent="1" source="PPXtktauCG2vYTS8j9W_-12" target="PPXtktauCG2vYTS8j9W_-19">
          <mxGeometry relative="1" as="geometry" />
        </mxCell>
        <mxCell id="PPXtktauCG2vYTS8j9W_-12" value="&lt;span style=&quot;font-size: 17px;&quot;&gt;非线性结构&lt;/span&gt;" style="rounded=1;whiteSpace=wrap;html=1;" vertex="1" parent="1">
          <mxGeometry x="570" y="510" width="90" height="40" as="geometry" />
        </mxCell>
        <mxCell id="PPXtktauCG2vYTS8j9W_-28" style="edgeStyle=orthogonalEdgeStyle;rounded=0;orthogonalLoop=1;jettySize=auto;html=1;exitX=0.5;exitY=1;exitDx=0;exitDy=0;entryX=0.5;entryY=0;entryDx=0;entryDy=0;" edge="1" parent="1" source="PPXtktauCG2vYTS8j9W_-13" target="PPXtktauCG2vYTS8j9W_-15">
          <mxGeometry relative="1" as="geometry" />
        </mxCell>
        <mxCell id="PPXtktauCG2vYTS8j9W_-29" style="edgeStyle=orthogonalEdgeStyle;rounded=0;orthogonalLoop=1;jettySize=auto;html=1;exitX=0.5;exitY=1;exitDx=0;exitDy=0;entryX=0.5;entryY=0;entryDx=0;entryDy=0;" edge="1" parent="1" source="PPXtktauCG2vYTS8j9W_-13" target="PPXtktauCG2vYTS8j9W_-14">
          <mxGeometry relative="1" as="geometry" />
        </mxCell>
        <mxCell id="PPXtktauCG2vYTS8j9W_-30" style="edgeStyle=orthogonalEdgeStyle;rounded=0;orthogonalLoop=1;jettySize=auto;html=1;exitX=0.5;exitY=1;exitDx=0;exitDy=0;" edge="1" parent="1" source="PPXtktauCG2vYTS8j9W_-13" target="PPXtktauCG2vYTS8j9W_-16">
          <mxGeometry relative="1" as="geometry" />
        </mxCell>
        <mxCell id="PPXtktauCG2vYTS8j9W_-13" value="&lt;span style=&quot;font-size: 17px;&quot;&gt;线性表&lt;/span&gt;" style="rounded=1;whiteSpace=wrap;html=1;" vertex="1" parent="1">
          <mxGeometry x="75" y="580" width="90" height="40" as="geometry" />
        </mxCell>
        <mxCell id="PPXtktauCG2vYTS8j9W_-14" value="&lt;span style=&quot;font-size: 17px;&quot;&gt;一般线性表&lt;/span&gt;" style="rounded=1;whiteSpace=wrap;html=1;" vertex="1" parent="1">
          <mxGeometry x="-80" y="660" width="90" height="40" as="geometry" />
        </mxCell>
        <mxCell id="PPXtktauCG2vYTS8j9W_-15" value="&lt;span style=&quot;font-size: 17px;&quot;&gt;特殊线性表&lt;/span&gt;" style="rounded=1;whiteSpace=wrap;html=1;" vertex="1" parent="1">
          <mxGeometry x="75" y="660" width="90" height="40" as="geometry" />
        </mxCell>
        <mxCell id="PPXtktauCG2vYTS8j9W_-16" value="&lt;span style=&quot;font-size: 17px;&quot;&gt;线性表的推广&lt;/span&gt;" style="rounded=1;whiteSpace=wrap;html=1;" vertex="1" parent="1">
          <mxGeometry x="200" y="660" width="110" height="40" as="geometry" />
        </mxCell>
        <mxCell id="PPXtktauCG2vYTS8j9W_-33" style="edgeStyle=orthogonalEdgeStyle;rounded=0;orthogonalLoop=1;jettySize=auto;html=1;exitX=0.5;exitY=1;exitDx=0;exitDy=0;" edge="1" parent="1" source="PPXtktauCG2vYTS8j9W_-18" target="PPXtktauCG2vYTS8j9W_-20">
          <mxGeometry relative="1" as="geometry" />
        </mxCell>
        <mxCell id="PPXtktauCG2vYTS8j9W_-34" style="edgeStyle=orthogonalEdgeStyle;rounded=0;orthogonalLoop=1;jettySize=auto;html=1;exitX=0.5;exitY=1;exitDx=0;exitDy=0;" edge="1" parent="1" source="PPXtktauCG2vYTS8j9W_-18" target="PPXtktauCG2vYTS8j9W_-21">
          <mxGeometry relative="1" as="geometry" />
        </mxCell>
        <mxCell id="PPXtktauCG2vYTS8j9W_-18" value="&lt;span style=&quot;font-size: 17px;&quot;&gt;树结构&lt;/span&gt;" style="rounded=1;whiteSpace=wrap;html=1;" vertex="1" parent="1">
          <mxGeometry x="450" y="590" width="90" height="40" as="geometry" />
        </mxCell>
        <mxCell id="PPXtktauCG2vYTS8j9W_-35" style="edgeStyle=orthogonalEdgeStyle;rounded=0;orthogonalLoop=1;jettySize=auto;html=1;exitX=0.5;exitY=1;exitDx=0;exitDy=0;entryX=0.5;entryY=0;entryDx=0;entryDy=0;" edge="1" parent="1" source="PPXtktauCG2vYTS8j9W_-19" target="PPXtktauCG2vYTS8j9W_-22">
          <mxGeometry relative="1" as="geometry" />
        </mxCell>
        <mxCell id="PPXtktauCG2vYTS8j9W_-36" style="edgeStyle=orthogonalEdgeStyle;rounded=0;orthogonalLoop=1;jettySize=auto;html=1;entryX=0.5;entryY=0;entryDx=0;entryDy=0;" edge="1" parent="1" source="PPXtktauCG2vYTS8j9W_-19" target="PPXtktauCG2vYTS8j9W_-23">
          <mxGeometry relative="1" as="geometry" />
        </mxCell>
        <mxCell id="PPXtktauCG2vYTS8j9W_-19" value="&lt;span style=&quot;font-size: 17px;&quot;&gt;图结构&lt;/span&gt;" style="rounded=1;whiteSpace=wrap;html=1;" vertex="1" parent="1">
          <mxGeometry x="710" y="590" width="90" height="40" as="geometry" />
        </mxCell>
        <mxCell id="PPXtktauCG2vYTS8j9W_-20" value="&lt;span style=&quot;font-size: 17px;&quot;&gt;树&lt;/span&gt;" style="rounded=1;whiteSpace=wrap;html=1;" vertex="1" parent="1">
          <mxGeometry x="390" y="670" width="90" height="40" as="geometry" />
        </mxCell>
        <mxCell id="PPXtktauCG2vYTS8j9W_-21" value="&lt;span style=&quot;font-size: 17px;&quot;&gt;二叉树&lt;/span&gt;" style="rounded=1;whiteSpace=wrap;html=1;" vertex="1" parent="1">
          <mxGeometry x="520" y="670" width="90" height="40" as="geometry" />
        </mxCell>
        <mxCell id="PPXtktauCG2vYTS8j9W_-22" value="&lt;span style=&quot;font-size: 17px;&quot;&gt;有向图&lt;/span&gt;" style="rounded=1;whiteSpace=wrap;html=1;" vertex="1" parent="1">
          <mxGeometry x="640" y="670" width="90" height="40" as="geometry" />
        </mxCell>
        <mxCell id="PPXtktauCG2vYTS8j9W_-23" value="&lt;span style=&quot;font-size: 17px;&quot;&gt;无向图&lt;/span&gt;" style="rounded=1;whiteSpace=wrap;html=1;" vertex="1" parent="1">
          <mxGeometry x="780" y="670" width="90" height="40" as="geometry" />
        </mxCell>
        <mxCell id="PPXtktauCG2vYTS8j9W_-38" value="" style="endArrow=none;html=1;rounded=0;exitX=1;exitY=0.75;exitDx=0;exitDy=0;entryX=0;entryY=0.25;entryDx=0;entryDy=0;" edge="1" parent="1" source="PPXtktauCG2vYTS8j9W_-3" target="PPXtktauCG2vYTS8j9W_-1">
          <mxGeometry width="50" height="50" relative="1" as="geometry">
            <mxPoint x="320" y="430" as="sourcePoint" />
            <mxPoint x="370" y="380" as="targetPoint" />
          </mxGeometry>
        </mxCell>
        <mxCell id="PPXtktauCG2vYTS8j9W_-39" value="" style="endArrow=none;html=1;rounded=0;exitX=1;exitY=0.5;exitDx=0;exitDy=0;" edge="1" parent="1" source="PPXtktauCG2vYTS8j9W_-5">
          <mxGeometry width="50" height="50" relative="1" as="geometry">
            <mxPoint x="170" y="280" as="sourcePoint" />
            <mxPoint x="200" y="350" as="targetPoint" />
          </mxGeometry>
        </mxCell>
        <mxCell id="PPXtktauCG2vYTS8j9W_-40" value="" style="endArrow=none;html=1;rounded=0;exitX=1;exitY=0.5;exitDx=0;exitDy=0;entryX=0;entryY=0.5;entryDx=0;entryDy=0;" edge="1" parent="1" source="PPXtktauCG2vYTS8j9W_-6" target="PPXtktauCG2vYTS8j9W_-1">
          <mxGeometry width="50" height="50" relative="1" as="geometry">
            <mxPoint x="180" y="290" as="sourcePoint" />
            <mxPoint x="220" y="363" as="targetPoint" />
          </mxGeometry>
        </mxCell>
        <mxCell id="PPXtktauCG2vYTS8j9W_-41" value="" style="endArrow=none;html=1;rounded=0;exitX=0;exitY=0.75;exitDx=0;exitDy=0;entryX=1;entryY=0.75;entryDx=0;entryDy=0;" edge="1" parent="1" source="PPXtktauCG2vYTS8j9W_-1" target="PPXtktauCG2vYTS8j9W_-7">
          <mxGeometry width="50" height="50" relative="1" as="geometry">
            <mxPoint x="190" y="300" as="sourcePoint" />
            <mxPoint x="230" y="373" as="targetPoint" />
          </mxGeometry>
        </mxCell>
        <mxCell id="PPXtktauCG2vYTS8j9W_-42" value="&lt;font style=&quot;font-size: 19px;&quot;&gt;顺序存储结构(随机存取)&lt;/font&gt;" style="rounded=1;whiteSpace=wrap;html=1;" vertex="1" parent="1">
          <mxGeometry x="880" y="510" width="120" height="70" as="geometry" />
        </mxCell>
        <mxCell id="PPXtktauCG2vYTS8j9W_-43" value="&lt;font style=&quot;font-size: 19px;&quot;&gt;链式存储结构(顺序存取)&lt;/font&gt;" style="rounded=1;whiteSpace=wrap;html=1;" vertex="1" parent="1">
          <mxGeometry x="1080" y="510" width="120" height="70" as="geometry" />
        </mxCell>
        <mxCell id="PPXtktauCG2vYTS8j9W_-45" value="&lt;span style=&quot;font-size: 17px;&quot;&gt;算法的时间复杂度与空间复杂度&lt;/span&gt;" style="rounded=0;whiteSpace=wrap;html=1;" vertex="1" parent="1">
          <mxGeometry x="520" y="320" width="130" height="70" as="geometry" />
        </mxCell>
        <mxCell id="PPXtktauCG2vYTS8j9W_-47" style="edgeStyle=orthogonalEdgeStyle;rounded=0;orthogonalLoop=1;jettySize=auto;html=1;exitX=0.5;exitY=1;exitDx=0;exitDy=0;entryX=0.583;entryY=0;entryDx=0;entryDy=0;entryPerimeter=0;" edge="1" parent="1" source="PPXtktauCG2vYTS8j9W_-10" target="PPXtktauCG2vYTS8j9W_-43">
          <mxGeometry relative="1" as="geometry" />
        </mxCell>
        <mxCell id="PPXtktauCG2vYTS8j9W_-48" value="&lt;font style=&quot;font-size: 22px;&quot;&gt;计算&lt;/font&gt;" style="rounded=0;whiteSpace=wrap;html=1;" vertex="1" parent="1">
          <mxGeometry x="680" y="330" width="90" height="50" as="geometry" />
        </mxCell>
      </root>
    </mxGraphModel>
  </diagram>
</mxfile>
